<svg width="210" height="154" viewBox="0 0 210 154" fill="none" xmlns="http://www.w3.org/2000/svg">
<circle cx="2.70304" cy="1.77568" r="1.77568" fill="#EBEBEB"/>
<circle cx="13.703" cy="1.77568" r="1.77568" fill="#EBEBEB"/>
<circle cx="24.703" cy="1.77568" r="1.77568" fill="#EBEBEB"/>
<circle cx="67.703" cy="1.77568" r="1.77568" fill="#EBEBEB"/>
<circle cx="78.703" cy="1.77568" r="1.77568" fill="#EBEBEB"/>
<circle cx="89.703" cy="1.77568" r="1.77568" fill="#EBEBEB"/>
<circle cx="100.703" cy="1.77568" r="1.77568" fill="#EBEBEB"/>
<circle cx="75.703" cy="1.77568" r="1.77568" fill="#EBEBEB"/>
<circle cx="86.703" cy="1.77568" r="1.77568" fill="#EBEBEB"/>
<circle cx="97.703" cy="1.77568" r="1.77568" fill="#EBEBEB"/>
<circle cx="108.703" cy="1.77568" r="1.77568" fill="#EBEBEB"/>
<circle cx="119.703" cy="1.77568" r="1.77568" fill="#EBEBEB"/>
<circle cx="130.703" cy="1.77568" r="1.77568" fill="#EBEBEB"/>
<circle cx="141.703" cy="1.77568" r="1.77568" fill="#EBEBEB"/>
<circle cx="152.703" cy="1.77568" r="1.77568" fill="#EBEBEB"/>
<circle cx="163.703" cy="1.77568" r="1.77568" fill="#EBEBEB"/>
<circle cx="174.703" cy="1.77568" r="1.77568" fill="#EBEBEB"/>
<circle cx="185.703" cy="1.77568" r="1.77568" fill="#EBEBEB"/>
<circle cx="196.703" cy="1.77568" r="1.77568" fill="#EBEBEB"/>
<circle cx="207.703" cy="1.77568" r="1.77568" fill="#EBEBEB"/>
<circle cx="2.70304" cy="11.7757" r="1.77568" fill="#EBEBEB"/>
<circle cx="13.703" cy="11.7757" r="1.77568" fill="#EBEBEB"/>
<circle cx="24.703" cy="11.7757" r="1.77568" fill="#EBEBEB"/>
<circle cx="67.703" cy="11.7757" r="1.77568" fill="#EBEBEB"/>
<circle cx="78.703" cy="11.7757" r="1.77568" fill="#EBEBEB"/>
<circle cx="89.703" cy="11.7757" r="1.77568" fill="#EBEBEB"/>
<circle cx="100.703" cy="11.7757" r="1.77568" fill="#EBEBEB"/>
<circle cx="75.703" cy="11.7757" r="1.77568" fill="#EBEBEB"/>
<circle cx="86.703" cy="11.7757" r="1.77568" fill="#EBEBEB"/>
<circle cx="97.703" cy="11.7757" r="1.77568" fill="#EBEBEB"/>
<circle cx="108.703" cy="11.7757" r="1.77568" fill="#EBEBEB"/>
<circle cx="119.703" cy="11.7757" r="1.77568" fill="#EBEBEB"/>
<circle cx="130.703" cy="11.7757" r="1.77568" fill="#EBEBEB"/>
<circle cx="141.703" cy="11.7757" r="1.77568" fill="#EBEBEB"/>
<circle cx="152.703" cy="11.7757" r="1.77568" fill="#EBEBEB"/>
<circle cx="163.703" cy="11.7757" r="1.77568" fill="#EBEBEB"/>
<circle cx="174.703" cy="11.7757" r="1.77568" fill="#EBEBEB"/>
<circle cx="185.703" cy="11.7757" r="1.77568" fill="#EBEBEB"/>
<circle cx="196.703" cy="11.7757" r="1.77568" fill="#EBEBEB"/>
<circle cx="207.703" cy="11.7757" r="1.77568" fill="#EBEBEB"/>
<circle cx="2.70304" cy="21.7757" r="1.77568" fill="#EBEBEB"/>
<circle cx="13.703" cy="21.7757" r="1.77568" fill="#EBEBEB"/>
<circle cx="24.703" cy="21.7757" r="1.77568" fill="#EBEBEB"/>
<circle cx="67.703" cy="21.7757" r="1.77568" fill="#EBEBEB"/>
<circle cx="78.703" cy="21.7757" r="1.77568" fill="#EBEBEB"/>
<circle cx="89.703" cy="21.7757" r="1.77568" fill="#EBEBEB"/>
<circle cx="100.703" cy="21.7757" r="1.77568" fill="#EBEBEB"/>
<circle cx="75.703" cy="21.7757" r="1.77568" fill="#EBEBEB"/>
<circle cx="86.703" cy="21.7757" r="1.77568" fill="#EBEBEB"/>
<circle cx="97.703" cy="21.7757" r="1.77568" fill="#EBEBEB"/>
<circle cx="108.703" cy="21.7757" r="1.77568" fill="#EBEBEB"/>
<circle cx="119.703" cy="21.7757" r="1.77568" fill="#EBEBEB"/>
<circle cx="130.703" cy="21.7757" r="1.77568" fill="#EBEBEB"/>
<circle cx="141.703" cy="21.7757" r="1.77568" fill="#EBEBEB"/>
<circle cx="152.703" cy="21.7757" r="1.77568" fill="#EBEBEB"/>
<circle cx="163.703" cy="21.7757" r="1.77568" fill="#EBEBEB"/>
<circle cx="174.703" cy="21.7757" r="1.77568" fill="#EBEBEB"/>
<circle cx="185.703" cy="21.7757" r="1.77568" fill="#EBEBEB"/>
<circle cx="196.703" cy="21.7757" r="1.77568" fill="#EBEBEB"/>
<circle cx="207.703" cy="21.7757" r="1.77568" fill="#EBEBEB"/>
<circle cx="2.70304" cy="31.7757" r="1.77568" fill="#EBEBEB"/>
<circle cx="13.703" cy="31.7757" r="1.77568" fill="#EBEBEB"/>
<circle cx="24.703" cy="31.7757" r="1.77568" fill="#EBEBEB"/>
<circle cx="67.703" cy="31.7757" r="1.77568" fill="#EBEBEB"/>
<circle cx="78.703" cy="31.7757" r="1.77568" fill="#EBEBEB"/>
<circle cx="89.703" cy="31.7757" r="1.77568" fill="#EBEBEB"/>
<circle cx="100.703" cy="31.7757" r="1.77568" fill="#EBEBEB"/>
<circle cx="75.703" cy="31.7757" r="1.77568" fill="#EBEBEB"/>
<circle cx="86.703" cy="31.7757" r="1.77568" fill="#EBEBEB"/>
<circle cx="97.703" cy="31.7757" r="1.77568" fill="#EBEBEB"/>
<circle cx="108.703" cy="31.7757" r="1.77568" fill="#EBEBEB"/>
<circle cx="119.703" cy="31.7757" r="1.77568" fill="#EBEBEB"/>
<circle cx="130.703" cy="31.7757" r="1.77568" fill="#EBEBEB"/>
<circle cx="141.703" cy="31.7757" r="1.77568" fill="#EBEBEB"/>
<circle cx="152.703" cy="31.7757" r="1.77568" fill="#EBEBEB"/>
<circle cx="163.703" cy="31.7757" r="1.77568" fill="#EBEBEB"/>
<circle cx="174.703" cy="31.7757" r="1.77568" fill="#EBEBEB"/>
<circle cx="185.703" cy="31.7757" r="1.77568" fill="#EBEBEB"/>
<circle cx="196.703" cy="31.7757" r="1.77568" fill="#EBEBEB"/>
<circle cx="207.703" cy="31.7757" r="1.77568" fill="#EBEBEB"/>
<circle cx="2.70304" cy="41.7757" r="1.77568" fill="#EBEBEB"/>
<circle cx="13.703" cy="41.7757" r="1.77568" fill="#EBEBEB"/>
<circle cx="24.703" cy="41.7757" r="1.77568" fill="#EBEBEB"/>
<circle cx="67.703" cy="41.7757" r="1.77568" fill="#EBEBEB"/>
<circle cx="78.703" cy="41.7757" r="1.77568" fill="#EBEBEB"/>
<circle cx="89.703" cy="41.7757" r="1.77568" fill="#EBEBEB"/>
<circle cx="100.703" cy="41.7757" r="1.77568" fill="#EBEBEB"/>
<circle cx="75.703" cy="41.7757" r="1.77568" fill="#EBEBEB"/>
<circle cx="86.703" cy="41.7757" r="1.77568" fill="#EBEBEB"/>
<circle cx="97.703" cy="41.7757" r="1.77568" fill="#EBEBEB"/>
<circle cx="108.703" cy="41.7757" r="1.77568" fill="#EBEBEB"/>
<circle cx="119.703" cy="41.7757" r="1.77568" fill="#EBEBEB"/>
<circle cx="130.703" cy="41.7757" r="1.77568" fill="#EBEBEB"/>
<circle cx="141.703" cy="41.7757" r="1.77568" fill="#EBEBEB"/>
<circle cx="152.703" cy="41.7757" r="1.77568" fill="#EBEBEB"/>
<circle cx="163.703" cy="41.7757" r="1.77568" fill="#EBEBEB"/>
<circle cx="174.703" cy="41.7757" r="1.77568" fill="#EBEBEB"/>
<circle cx="185.703" cy="41.7757" r="1.77568" fill="#EBEBEB"/>
<circle cx="196.703" cy="41.7757" r="1.77568" fill="#EBEBEB"/>
<circle cx="207.703" cy="41.7757" r="1.77568" fill="#EBEBEB"/>
<circle cx="2.70304" cy="51.7757" r="1.77568" fill="#EBEBEB"/>
<circle cx="13.703" cy="51.7757" r="1.77568" fill="#EBEBEB"/>
<circle cx="24.703" cy="51.7757" r="1.77568" fill="#EBEBEB"/>
<circle cx="67.703" cy="51.7757" r="1.77568" fill="#EBEBEB"/>
<circle cx="78.703" cy="51.7757" r="1.77568" fill="#EBEBEB"/>
<circle cx="89.703" cy="51.7757" r="1.77568" fill="#EBEBEB"/>
<circle cx="100.703" cy="51.7757" r="1.77568" fill="#EBEBEB"/>
<circle cx="75.703" cy="51.7757" r="1.77568" fill="#EBEBEB"/>
<circle cx="86.703" cy="51.7757" r="1.77568" fill="#EBEBEB"/>
<circle cx="97.703" cy="51.7757" r="1.77568" fill="#EBEBEB"/>
<circle cx="108.703" cy="51.7757" r="1.77568" fill="#EBEBEB"/>
<circle cx="119.703" cy="51.7757" r="1.77568" fill="#EBEBEB"/>
<circle cx="130.703" cy="51.7757" r="1.77568" fill="#EBEBEB"/>
<circle cx="141.703" cy="51.7757" r="1.77568" fill="#EBEBEB"/>
<circle cx="152.703" cy="51.7757" r="1.77568" fill="#EBEBEB"/>
<circle cx="163.703" cy="51.7757" r="1.77568" fill="#EBEBEB"/>
<circle cx="174.703" cy="51.7757" r="1.77568" fill="#EBEBEB"/>
<circle cx="185.703" cy="51.7757" r="1.77568" fill="#EBEBEB"/>
<circle cx="196.703" cy="51.7757" r="1.77568" fill="#EBEBEB"/>
<circle cx="207.703" cy="51.7757" r="1.77568" fill="#EBEBEB"/>
<circle cx="2.70304" cy="61.7757" r="1.77568" fill="#EBEBEB"/>
<circle cx="13.703" cy="61.7757" r="1.77568" fill="#EBEBEB"/>
<circle cx="24.703" cy="61.7757" r="1.77568" fill="#EBEBEB"/>
<circle cx="67.703" cy="61.7757" r="1.77568" fill="#EBEBEB"/>
<circle cx="78.703" cy="61.7757" r="1.77568" fill="#EBEBEB"/>
<circle cx="89.703" cy="61.7757" r="1.77568" fill="#EBEBEB"/>
<circle cx="100.703" cy="61.7757" r="1.77568" fill="#EBEBEB"/>
<circle cx="75.703" cy="61.7757" r="1.77568" fill="#EBEBEB"/>
<circle cx="86.703" cy="61.7757" r="1.77568" fill="#EBEBEB"/>
<circle cx="97.703" cy="61.7757" r="1.77568" fill="#EBEBEB"/>
<circle cx="108.703" cy="61.7757" r="1.77568" fill="#EBEBEB"/>
<circle cx="119.703" cy="61.7757" r="1.77568" fill="#EBEBEB"/>
<circle cx="130.703" cy="61.7757" r="1.77568" fill="#EBEBEB"/>
<circle cx="141.703" cy="61.7757" r="1.77568" fill="#EBEBEB"/>
<circle cx="152.703" cy="61.7757" r="1.77568" fill="#EBEBEB"/>
<circle cx="163.703" cy="61.7757" r="1.77568" fill="#EBEBEB"/>
<circle cx="174.703" cy="61.7757" r="1.77568" fill="#EBEBEB"/>
<circle cx="185.703" cy="61.7757" r="1.77568" fill="#EBEBEB"/>
<circle cx="196.703" cy="61.7757" r="1.77568" fill="#EBEBEB"/>
<circle cx="207.703" cy="61.7757" r="1.77568" fill="#EBEBEB"/>
<circle cx="2.70304" cy="71.7757" r="1.77568" fill="#EBEBEB"/>
<circle cx="13.703" cy="71.7757" r="1.77568" fill="#EBEBEB"/>
<circle cx="24.703" cy="71.7757" r="1.77568" fill="#EBEBEB"/>
<circle cx="67.703" cy="71.7757" r="1.77568" fill="#EBEBEB"/>
<circle cx="78.703" cy="71.7757" r="1.77568" fill="#EBEBEB"/>
<circle cx="89.703" cy="71.7757" r="1.77568" fill="#EBEBEB"/>
<circle cx="100.703" cy="71.7757" r="1.77568" fill="#EBEBEB"/>
<circle cx="75.703" cy="71.7757" r="1.77568" fill="#EBEBEB"/>
<circle cx="86.703" cy="71.7757" r="1.77568" fill="#EBEBEB"/>
<circle cx="97.703" cy="71.7757" r="1.77568" fill="#EBEBEB"/>
<circle cx="108.703" cy="71.7757" r="1.77568" fill="#EBEBEB"/>
<circle cx="119.703" cy="71.7757" r="1.77568" fill="#EBEBEB"/>
<circle cx="130.703" cy="71.7757" r="1.77568" fill="#EBEBEB"/>
<circle cx="141.703" cy="71.7757" r="1.77568" fill="#EBEBEB"/>
<circle cx="152.703" cy="71.7757" r="1.77568" fill="#EBEBEB"/>
<circle cx="163.703" cy="71.7757" r="1.77568" fill="#EBEBEB"/>
<circle cx="174.703" cy="71.7757" r="1.77568" fill="#EBEBEB"/>
<circle cx="185.703" cy="71.7757" r="1.77568" fill="#EBEBEB"/>
<circle cx="196.703" cy="71.7757" r="1.77568" fill="#EBEBEB"/>
<circle cx="207.703" cy="71.7757" r="1.77568" fill="#EBEBEB"/>
<circle cx="2.70304" cy="81.7757" r="1.77568" fill="#EBEBEB"/>
<circle cx="13.703" cy="81.7757" r="1.77568" fill="#EBEBEB"/>
<circle cx="24.703" cy="81.7757" r="1.77568" fill="#EBEBEB"/>
<circle cx="67.703" cy="81.7757" r="1.77568" fill="#EBEBEB"/>
<circle cx="78.703" cy="81.7757" r="1.77568" fill="#EBEBEB"/>
<circle cx="89.703" cy="81.7757" r="1.77568" fill="#EBEBEB"/>
<circle cx="100.703" cy="81.7757" r="1.77568" fill="#EBEBEB"/>
<circle cx="75.703" cy="81.7757" r="1.77568" fill="#EBEBEB"/>
<circle cx="86.703" cy="81.7757" r="1.77568" fill="#EBEBEB"/>
<circle cx="97.703" cy="81.7757" r="1.77568" fill="#EBEBEB"/>
<circle cx="108.703" cy="81.7757" r="1.77568" fill="#EBEBEB"/>
<circle cx="119.703" cy="81.7757" r="1.77568" fill="#EBEBEB"/>
<circle cx="130.703" cy="81.7757" r="1.77568" fill="#EBEBEB"/>
<circle cx="141.703" cy="81.7757" r="1.77568" fill="#EBEBEB"/>
<circle cx="152.703" cy="81.7757" r="1.77568" fill="#EBEBEB"/>
<circle cx="163.703" cy="81.7757" r="1.77568" fill="#EBEBEB"/>
<circle cx="174.703" cy="81.7757" r="1.77568" fill="#EBEBEB"/>
<circle cx="185.703" cy="81.7757" r="1.77568" fill="#EBEBEB"/>
<circle cx="196.703" cy="81.7757" r="1.77568" fill="#EBEBEB"/>
<circle cx="207.703" cy="81.7757" r="1.77568" fill="#EBEBEB"/>
<circle cx="2.70304" cy="91.7757" r="1.77568" fill="#EBEBEB"/>
<circle cx="13.703" cy="91.7757" r="1.77568" fill="#EBEBEB"/>
<circle cx="24.703" cy="91.7757" r="1.77568" fill="#EBEBEB"/>
<circle cx="67.703" cy="91.7757" r="1.77568" fill="#EBEBEB"/>
<circle cx="78.703" cy="91.7757" r="1.77568" fill="#EBEBEB"/>
<circle cx="89.703" cy="91.7757" r="1.77568" fill="#EBEBEB"/>
<circle cx="100.703" cy="91.7757" r="1.77568" fill="#EBEBEB"/>
<circle cx="75.703" cy="91.7757" r="1.77568" fill="#EBEBEB"/>
<circle cx="86.703" cy="91.7757" r="1.77568" fill="#EBEBEB"/>
<circle cx="97.703" cy="91.7757" r="1.77568" fill="#EBEBEB"/>
<circle cx="108.703" cy="91.7757" r="1.77568" fill="#EBEBEB"/>
<circle cx="119.703" cy="91.7757" r="1.77568" fill="#EBEBEB"/>
<circle cx="130.703" cy="91.7757" r="1.77568" fill="#EBEBEB"/>
<circle cx="141.703" cy="91.7757" r="1.77568" fill="#EBEBEB"/>
<circle cx="152.703" cy="91.7757" r="1.77568" fill="#EBEBEB"/>
<circle cx="163.703" cy="91.7757" r="1.77568" fill="#EBEBEB"/>
<circle cx="174.703" cy="91.7757" r="1.77568" fill="#EBEBEB"/>
<circle cx="185.703" cy="91.7757" r="1.77568" fill="#EBEBEB"/>
<circle cx="196.703" cy="91.7757" r="1.77568" fill="#EBEBEB"/>
<circle cx="207.703" cy="91.7757" r="1.77568" fill="#EBEBEB"/>
<circle cx="2.70304" cy="101.776" r="1.77568" fill="#EBEBEB"/>
<circle cx="13.703" cy="101.776" r="1.77568" fill="#EBEBEB"/>
<circle cx="24.703" cy="101.776" r="1.77568" fill="#EBEBEB"/>
<circle cx="67.703" cy="101.776" r="1.77568" fill="#EBEBEB"/>
<circle cx="78.703" cy="101.776" r="1.77568" fill="#EBEBEB"/>
<circle cx="89.703" cy="101.776" r="1.77568" fill="#EBEBEB"/>
<circle cx="100.703" cy="101.776" r="1.77568" fill="#EBEBEB"/>
<circle cx="75.703" cy="101.776" r="1.77568" fill="#EBEBEB"/>
<circle cx="86.703" cy="101.776" r="1.77568" fill="#EBEBEB"/>
<circle cx="97.703" cy="101.776" r="1.77568" fill="#EBEBEB"/>
<circle cx="108.703" cy="101.776" r="1.77568" fill="#EBEBEB"/>
<circle cx="119.703" cy="101.776" r="1.77568" fill="#EBEBEB"/>
<circle cx="130.703" cy="101.776" r="1.77568" fill="#EBEBEB"/>
<circle cx="141.703" cy="101.776" r="1.77568" fill="#EBEBEB"/>
<circle cx="152.703" cy="101.776" r="1.77568" fill="#EBEBEB"/>
<circle cx="163.703" cy="101.776" r="1.77568" fill="#EBEBEB"/>
<circle cx="174.703" cy="101.776" r="1.77568" fill="#EBEBEB"/>
<circle cx="185.703" cy="101.776" r="1.77568" fill="#EBEBEB"/>
<circle cx="196.703" cy="101.776" r="1.77568" fill="#EBEBEB"/>
<circle cx="207.703" cy="101.776" r="1.77568" fill="#EBEBEB"/>
<circle cx="2.70304" cy="111.776" r="1.77568" fill="#EBEBEB"/>
<circle cx="13.703" cy="111.776" r="1.77568" fill="#EBEBEB"/>
<circle cx="24.703" cy="111.776" r="1.77568" fill="#EBEBEB"/>
<circle cx="67.703" cy="111.776" r="1.77568" fill="#EBEBEB"/>
<circle cx="78.703" cy="111.776" r="1.77568" fill="#EBEBEB"/>
<circle cx="89.703" cy="111.776" r="1.77568" fill="#EBEBEB"/>
<circle cx="100.703" cy="111.776" r="1.77568" fill="#EBEBEB"/>
<circle cx="75.703" cy="111.776" r="1.77568" fill="#EBEBEB"/>
<circle cx="86.703" cy="111.776" r="1.77568" fill="#EBEBEB"/>
<circle cx="97.703" cy="111.776" r="1.77568" fill="#EBEBEB"/>
<circle cx="108.703" cy="111.776" r="1.77568" fill="#EBEBEB"/>
<circle cx="119.703" cy="111.776" r="1.77568" fill="#EBEBEB"/>
<circle cx="130.703" cy="111.776" r="1.77568" fill="#EBEBEB"/>
<circle cx="141.703" cy="111.776" r="1.77568" fill="#EBEBEB"/>
<circle cx="152.703" cy="111.776" r="1.77568" fill="#EBEBEB"/>
<circle cx="163.703" cy="111.776" r="1.77568" fill="#EBEBEB"/>
<circle cx="174.703" cy="111.776" r="1.77568" fill="#EBEBEB"/>
<circle cx="185.703" cy="111.776" r="1.77568" fill="#EBEBEB"/>
<circle cx="196.703" cy="111.776" r="1.77568" fill="#EBEBEB"/>
<circle cx="207.703" cy="111.776" r="1.77568" fill="#EBEBEB"/>
<circle cx="2.70304" cy="121.776" r="1.77568" fill="#EBEBEB"/>
<circle cx="13.703" cy="121.776" r="1.77568" fill="#EBEBEB"/>
<circle cx="24.703" cy="121.776" r="1.77568" fill="#EBEBEB"/>
<circle cx="67.703" cy="121.776" r="1.77568" fill="#EBEBEB"/>
<circle cx="78.703" cy="121.776" r="1.77568" fill="#EBEBEB"/>
<circle cx="89.703" cy="121.776" r="1.77568" fill="#EBEBEB"/>
<circle cx="100.703" cy="121.776" r="1.77568" fill="#EBEBEB"/>
<circle cx="75.703" cy="121.776" r="1.77568" fill="#EBEBEB"/>
<circle cx="86.703" cy="121.776" r="1.77568" fill="#EBEBEB"/>
<circle cx="97.703" cy="121.776" r="1.77568" fill="#EBEBEB"/>
<circle cx="108.703" cy="121.776" r="1.77568" fill="#EBEBEB"/>
<circle cx="119.703" cy="121.776" r="1.77568" fill="#EBEBEB"/>
<circle cx="130.703" cy="121.776" r="1.77568" fill="#EBEBEB"/>
<circle cx="141.703" cy="121.776" r="1.77568" fill="#EBEBEB"/>
<circle cx="152.703" cy="121.776" r="1.77568" fill="#EBEBEB"/>
<circle cx="163.703" cy="121.776" r="1.77568" fill="#EBEBEB"/>
<circle cx="174.703" cy="121.776" r="1.77568" fill="#EBEBEB"/>
<circle cx="185.703" cy="121.776" r="1.77568" fill="#EBEBEB"/>
<circle cx="196.703" cy="121.776" r="1.77568" fill="#EBEBEB"/>
<circle cx="207.703" cy="121.776" r="1.77568" fill="#EBEBEB"/>
<circle cx="2.70304" cy="131.776" r="1.77568" fill="#EBEBEB"/>
<circle cx="13.703" cy="131.776" r="1.77568" fill="#EBEBEB"/>
<circle cx="24.703" cy="131.776" r="1.77568" fill="#EBEBEB"/>
<circle cx="67.703" cy="131.776" r="1.77568" fill="#EBEBEB"/>
<circle cx="78.703" cy="131.776" r="1.77568" fill="#EBEBEB"/>
<circle cx="89.703" cy="131.776" r="1.77568" fill="#EBEBEB"/>
<circle cx="100.703" cy="131.776" r="1.77568" fill="#EBEBEB"/>
<circle cx="75.703" cy="131.776" r="1.77568" fill="#EBEBEB"/>
<circle cx="86.703" cy="131.776" r="1.77568" fill="#EBEBEB"/>
<circle cx="97.703" cy="131.776" r="1.77568" fill="#EBEBEB"/>
<circle cx="108.703" cy="131.776" r="1.77568" fill="#EBEBEB"/>
<circle cx="119.703" cy="131.776" r="1.77568" fill="#EBEBEB"/>
<circle cx="130.703" cy="131.776" r="1.77568" fill="#EBEBEB"/>
<circle cx="141.703" cy="131.776" r="1.77568" fill="#EBEBEB"/>
<circle cx="152.703" cy="131.776" r="1.77568" fill="#EBEBEB"/>
<circle cx="163.703" cy="131.776" r="1.77568" fill="#EBEBEB"/>
<circle cx="174.703" cy="131.776" r="1.77568" fill="#EBEBEB"/>
<circle cx="185.703" cy="131.776" r="1.77568" fill="#EBEBEB"/>
<circle cx="196.703" cy="131.776" r="1.77568" fill="#EBEBEB"/>
<circle cx="207.703" cy="131.776" r="1.77568" fill="#EBEBEB"/>
<circle cx="2.70304" cy="141.776" r="1.77568" fill="#EBEBEB"/>
<circle cx="13.703" cy="141.776" r="1.77568" fill="#EBEBEB"/>
<circle cx="24.703" cy="141.776" r="1.77568" fill="#EBEBEB"/>
<circle cx="67.703" cy="141.776" r="1.77568" fill="#EBEBEB"/>
<circle cx="78.703" cy="141.776" r="1.77568" fill="#EBEBEB"/>
<circle cx="89.703" cy="141.776" r="1.77568" fill="#EBEBEB"/>
<circle cx="100.703" cy="141.776" r="1.77568" fill="#EBEBEB"/>
<circle cx="75.703" cy="141.776" r="1.77568" fill="#EBEBEB"/>
<circle cx="86.703" cy="141.776" r="1.77568" fill="#EBEBEB"/>
<circle cx="97.703" cy="141.776" r="1.77568" fill="#EBEBEB"/>
<circle cx="108.703" cy="141.776" r="1.77568" fill="#EBEBEB"/>
<circle cx="119.703" cy="141.776" r="1.77568" fill="#EBEBEB"/>
<circle cx="130.703" cy="141.776" r="1.77568" fill="#EBEBEB"/>
<circle cx="141.703" cy="141.776" r="1.77568" fill="#EBEBEB"/>
<circle cx="152.703" cy="141.776" r="1.77568" fill="#EBEBEB"/>
<circle cx="163.703" cy="141.776" r="1.77568" fill="#EBEBEB"/>
<circle cx="174.703" cy="141.776" r="1.77568" fill="#EBEBEB"/>
<circle cx="185.703" cy="141.776" r="1.77568" fill="#EBEBEB"/>
<circle cx="196.703" cy="141.776" r="1.77568" fill="#EBEBEB"/>
<circle cx="207.703" cy="141.776" r="1.77568" fill="#EBEBEB"/>
<circle cx="2.70304" cy="151.776" r="1.77568" fill="#EBEBEB"/>
<circle cx="13.703" cy="151.776" r="1.77568" fill="#EBEBEB"/>
<circle cx="24.703" cy="151.776" r="1.77568" fill="#EBEBEB"/>
<circle cx="67.703" cy="151.776" r="1.77568" fill="#EBEBEB"/>
<circle cx="78.703" cy="151.776" r="1.77568" fill="#EBEBEB"/>
<circle cx="89.703" cy="151.776" r="1.77568" fill="#EBEBEB"/>
<circle cx="100.703" cy="151.776" r="1.77568" fill="#EBEBEB"/>
<circle cx="75.703" cy="151.776" r="1.77568" fill="#EBEBEB"/>
<circle cx="86.703" cy="151.776" r="1.77568" fill="#EBEBEB"/>
<circle cx="97.703" cy="151.776" r="1.77568" fill="#EBEBEB"/>
<circle cx="108.703" cy="151.776" r="1.77568" fill="#EBEBEB"/>
<circle cx="119.703" cy="151.776" r="1.77568" fill="#EBEBEB"/>
<circle cx="130.703" cy="151.776" r="1.77568" fill="#EBEBEB"/>
<circle cx="141.703" cy="151.776" r="1.77568" fill="#EBEBEB"/>
<circle cx="152.703" cy="151.776" r="1.77568" fill="#EBEBEB"/>
<circle cx="163.703" cy="151.776" r="1.77568" fill="#EBEBEB"/>
<circle cx="174.703" cy="151.776" r="1.77568" fill="#EBEBEB"/>
<circle cx="185.703" cy="151.776" r="1.77568" fill="#EBEBEB"/>
<circle cx="196.703" cy="151.776" r="1.77568" fill="#EBEBEB"/>
<circle cx="207.703" cy="151.776" r="1.77568" fill="#EBEBEB"/>
</svg>
